<svg width="58" height="58" viewBox="0 0 58 58" fill="none" xmlns="http://www.w3.org/2000/svg">
<g clip-path="url(#clip0_2_2910)">
<path d="M29 0.000732422H14.5L0 14.5007V29.0007H14.5L29 14.5007V0.000732422Z" fill="#F55279"/>
<path d="M29 0.000488281H14.5V14.5005H29V0.000488281Z" fill="#60BAAF"/>
<path d="M29 29H14.5L0 43.5V58H14.5L29 43.5V29Z" fill="#F55279"/>
<path d="M29 29H14.5V43.5H29V29Z" fill="#60BAAF"/>
<path d="M58 0.000488281H43.5L29 14.5005V29.0005H43.5L58 14.5005V0.000488281Z" fill="#F55279"/>
<path d="M58 0.000488281H43.5V14.5005H58V0.000488281Z" fill="#60BAAF"/>
<path d="M58 29H43.5L29 43.5V58H43.5L58 43.5V29Z" fill="#F55279"/>
<path d="M58 29H43.5V43.5H58V29Z" fill="#60BAAF"/>
</g>
<defs>
<clipPath id="clip0_2_2910">
<rect width="58" height="58" fill="white"/>
</clipPath>
</defs>
</svg>
