<svg width="40" height="40" viewBox="0 0 40 40" fill="none" xmlns="http://www.w3.org/2000/svg">
<path d="M18.7168 12.1508V5.46913C18.7168 4.75867 19.2835 4.16663 20.0002 4.16663C20.6418 4.16663 21.1855 4.66411 21.2716 5.29426L21.2835 5.46913V12.1508L29.25 12.1513C33.2167 12.1513 36.4756 15.3996 36.6586 19.4506L36.6667 19.8101V28.2089C36.6667 32.2884 33.5211 35.6369 29.6134 35.825L29.2667 35.8333H10.7333C6.76667 35.8333 3.52348 32.6013 3.3414 28.5354L3.33333 28.1745L3.33333 19.7929C3.33333 15.7135 6.46318 12.3486 10.37 12.1597L10.7167 12.1513H18.7167V22.822L16.05 20.0683C15.55 19.5519 14.7333 19.5519 14.2333 20.0683C13.9833 20.3264 13.8667 20.6706 13.8667 21.0149C13.8667 21.2765 13.9413 21.5491 14.0992 21.7798L14.2333 21.9442L19.0833 26.9698C19.3167 27.2279 19.65 27.3656 20 27.3656C20.2778 27.3656 20.5556 27.27 20.7755 27.0887L20.9 26.9698L25.75 21.9442C26.25 21.4279 26.25 20.5846 25.75 20.0683C25.2955 19.5989 24.5792 19.5562 24.0771 19.9403L23.9333 20.0683L21.2833 22.822V12.1513L18.7168 12.1508Z" fill="#F55279"/>
</svg>
