<svg width="40" height="40" viewBox="0 0 40 40" fill="none" xmlns="http://www.w3.org/2000/svg">
<path d="M28.3333 7.91663H26.6667V5.43329C26.6667 4.04996 25.5333 2.91663 24.15 2.91663H15.85C14.4667 2.91663 13.3333 4.04996 13.3333 5.43329V7.91663H11.6667C9.83333 7.91663 8.33333 9.41663 8.33333 11.25V11.4666C8.86667 11.3166 9.41667 11.25 10 11.25H30C30.5833 11.25 31.1333 11.3166 31.6667 11.4666V11.25C31.6667 9.41663 30.1667 7.91663 28.3333 7.91663Z" fill="#F55279"/>
<path d="M23.2167 28.2167C22.6833 28.2167 22.2667 28.65 22.2667 29.1667C22.2667 29.6833 22.7 30.1167 23.2167 30.1167C23.7333 30.1167 24.1667 29.6833 24.1667 29.1667C24.1667 28.65 23.7333 28.2167 23.2167 28.2167Z" fill="#F55279"/>
<path d="M15.1167 29.6833C14.5833 29.6833 14.1667 30.1167 14.1667 30.6333C14.1667 31.15 14.6 31.5834 15.1167 31.5834C15.6333 31.5834 16.0667 31.15 16.0667 30.6333C16.0667 30.1167 15.65 29.6833 15.1167 29.6833Z" fill="#F55279"/>
<path d="M31.6667 13.9667C31.1333 13.8167 30.5833 13.75 30 13.75H10C9.41667 13.75 8.86667 13.8167 8.33333 13.9667C5.46667 14.7167 3.33333 17.3333 3.33333 20.4167V30.4167C3.33333 34.0833 6.33333 37.0833 10 37.0833H30C33.6667 37.0833 36.6667 34.0833 36.6667 30.4167V20.4167C36.6667 17.3333 34.5333 14.7167 31.6667 13.9667ZM26.6667 22.1333V29.1667C26.6667 31.0667 25.1167 32.6167 23.2167 32.6167C21.3167 32.6167 19.7667 31.0667 19.7667 29.1667C19.7667 27.2667 21.3167 25.7167 23.2167 25.7167C23.55 25.7167 23.8667 25.7833 24.1667 25.8667V23.7667L18.5833 25.2833V30.6333C18.5833 30.65 18.5833 30.6667 18.5667 30.6833C18.55 32.5667 17 34.1 15.1167 34.1C13.2167 34.1 11.6667 32.55 11.6667 30.6333C11.6667 28.7167 13.2167 27.1833 15.1167 27.1833C15.45 27.1833 15.7667 27.25 16.0833 27.3333V24.3333V21.75C16.0833 20.3167 16.9833 19.15 18.35 18.7833L22.7667 17.5667C24.1833 17.1833 25.0833 17.55 25.5833 17.9333C26.0833 18.3167 26.6667 19.0667 26.6667 20.55V22.1333Z" fill="#F55279"/>
</svg>
