<svg width="28" height="26" viewBox="0 0 28 26" fill="none" xmlns="http://www.w3.org/2000/svg">
<path d="M21.8913 16.0935C21.546 16.4282 21.3873 16.9122 21.466 17.3868L22.6513 23.9468C22.7513 24.5028 22.5167 25.0655 22.0513 25.3868C21.5953 25.7202 20.9887 25.7602 20.4913 25.4935L14.586 22.4135C14.3807 22.3042 14.1527 22.2455 13.9193 22.2388H13.558C13.4327 22.2575 13.31 22.2975 13.198 22.3588L7.29134 25.4535C6.99934 25.6002 6.66867 25.6522 6.34467 25.6002C5.55534 25.4508 5.02867 24.6988 5.158 23.9055L6.34467 17.3455C6.42334 16.8668 6.26467 16.3802 5.91934 16.0402L1.10467 11.3735C0.702003 10.9828 0.562003 10.3962 0.746003 9.86683C0.924669 9.33883 1.38067 8.9535 1.93134 8.86683L8.558 7.9055C9.062 7.8535 9.50467 7.54683 9.73134 7.0935L12.6513 1.10683C12.7207 0.973496 12.81 0.850829 12.918 0.746829L13.038 0.653496C13.1007 0.584163 13.1727 0.526829 13.2527 0.480163L13.398 0.426829L13.6247 0.333496H14.186C14.6873 0.385496 15.1287 0.685496 15.3593 1.1335L18.318 7.0935C18.5313 7.5295 18.946 7.83216 19.4247 7.9055L26.0513 8.86683C26.6113 8.94683 27.0793 9.3335 27.2647 9.86683C27.4393 10.4015 27.2887 10.9882 26.878 11.3735L21.8913 16.0935Z" fill="#E8B152"/>
</svg>
